<?xml version="1.0" encoding="utf-8"?>
<!-- Generator: Adobe Illustrator 19.1.0, SVG Export Plug-In . SVG Version: 6.00 Build 0)  -->
<svg version="1.1" id="Menu" xmlns="http://www.w3.org/2000/svg" xmlns:xlink="http://www.w3.org/1999/xlink" x="0px" y="0px"
	 viewBox="-295 387 20 20" style="enable-background:new -295 387 20 20;" xml:space="preserve">
<style type="text/css">
	.st0{fill:#FFFFFF;}
</style>
<path class="st0" d="M-278.6,396h-12.8c-0.6,0-0.6,0.4-0.6,1s0,1,0.6,1h12.8c0.6,0,0.6-0.4,0.6-1S-278,396-278.6,396z M-278.6,400
	h-12.8c-0.6,0-0.6,0.4-0.6,1s0,1,0.6,1h12.8c0.6,0,0.6-0.4,0.6-1S-278,400-278.6,400z M-291.4,394h12.8c0.6,0,0.6-0.4,0.6-1
	s0-1-0.6-1h-12.8c-0.6,0-0.6,0.4-0.6,1S-292,394-291.4,394z"/>
</svg>
