<?xml version="1.0" encoding="utf-8"?>
<!-- Generator: Adobe Illustrator 19.1.0, SVG Export Plug-In . SVG Version: 6.00 Build 0)  -->
<svg version="1.1" id="Cross" xmlns="http://www.w3.org/2000/svg" xmlns:xlink="http://www.w3.org/1999/xlink" x="0px" y="0px"
	 viewBox="-295 387 20 20" style="enable-background:new -295 387 20 20;" xml:space="preserve">
<style type="text/css">
	.st0{fill:#FFFFFF;}
</style>
<path class="st0" d="M-280.7,401.8c-0.5,0.5-1.2,0.5-1.7,0l-2.7-3l-2.7,3c-0.5,0.5-1.2,0.5-1.7,0c-0.5-0.5-0.5-1.2,0-1.7l2.8-3.1
	l-2.8-3.2c-0.5-0.5-0.5-1.2,0-1.7s1.2-0.5,1.7,0l2.7,3l2.7-3c0.5-0.5,1.2-0.5,1.7,0s0.5,1.2,0,1.7l-2.8,3.2l2.8,3.1
	C-280.2,400.6-280.2,401.4-280.7,401.8z"/>
</svg>
