<?xml version="1.0" encoding="utf-8"?>
<!-- Generator: Adobe Illustrator 19.1.0, SVG Export Plug-In . SVG Version: 6.00 Build 0)  -->
<svg version="1.1" xmlns="http://www.w3.org/2000/svg" xmlns:xlink="http://www.w3.org/1999/xlink" x="0px" y="0px"
	 viewBox="0 0 200.4 128.9" style="enable-background:new 0 0 200.4 128.9;" xml:space="preserve">
<style type="text/css">
	.st0{display:none;}
	.st1{fill:#D9E021;}
	.st2{fill:#262626;}
	.st3{fill:#FFFFFF;}
	.st4{opacity:0.5;}
	.st5{fill:#FFFF00;}
	.st6{opacity:0.43;fill:#00FF00;}
	.st7{opacity:0.39;fill:#FF0000;}
	.st8{fill:#FF931E;}
	.st9{opacity:0.7;fill:#ED1E79;}
	.st10{opacity:0.6;fill:#FF931E;}
	.st11{opacity:0.5;fill:#FFFF00;}
	.st12{fill:#ED1E79;}
	.st13{opacity:0.6;}
	.st14{opacity:0.5;fill:#00FFFF;}
	.st15{opacity:0.6;fill:#ED1C24;}
	.st16{opacity:0.5;fill:#29ABE2;}
	.st17{fill:#FCEE21;}
	.st18{fill:#FF0000;}
	.st19{opacity:0.53;}
	.st20{opacity:0.3;}
	.st21{fill:none;stroke:#000000;stroke-miterlimit:10;}
	.st22{fill:none;stroke:#000000;stroke-width:2;stroke-linecap:round;stroke-linejoin:round;stroke-miterlimit:10;}
	.st23{fill:none;stroke:#000000;stroke-width:2;stroke-miterlimit:10;}
	.st24{fill:none;stroke:#000000;stroke-linecap:square;stroke-miterlimit:10;}
	.st25{fill:#F2F2F2;}
	.st26{fill:none;stroke:#FFFFFF;stroke-width:2;stroke-linecap:round;stroke-linejoin:round;stroke-miterlimit:10;}
	.st27{fill:#F2F2F2;stroke:#000000;stroke-miterlimit:10;}
	.st28{fill:none;stroke:#000000;stroke-width:0.5;stroke-linecap:round;stroke-linejoin:round;stroke-miterlimit:10;}
	.st29{fill:#D4145A;stroke:#000000;stroke-width:2;stroke-linecap:round;stroke-linejoin:round;stroke-miterlimit:10;}
	.st30{fill:#D4145A;stroke:#000000;stroke-width:2;stroke-miterlimit:10;}
	.st31{stroke:#000000;stroke-width:2;stroke-linecap:round;stroke-linejoin:round;stroke-miterlimit:10;}
	.st32{fill:#E6E6E6;stroke:#000000;stroke-width:2;stroke-linecap:round;stroke-linejoin:round;stroke-miterlimit:10;}
	.st33{opacity:0.5;fill:#FFFFFF;}
	.st34{opacity:0.5;fill:#262626;}
	.st35{fill:#D7C603;}
	.st36{opacity:0.5;fill:#D7C603;}
</style>
<g id="Layer_2" class="st0">
</g>
<g id="Layer_1">
	<g>
		<path class="st2" d="M14.9,82.5c1.1,0,1.9,0.3,2.5,0.8c0.6,0.6,0.9,1.4,0.9,2.6c0,0.6-0.1,1.1-0.2,1.6c-0.1,0.5-0.3,0.9-0.6,1.2
			c-0.3,0.3-0.6,0.6-1.1,0.7c-0.4,0.2-0.9,0.2-1.5,0.2h-2.5v-7.1H14.9z M15,88.9c0.1,0,0.2,0,0.4,0s0.3-0.1,0.5-0.1
			c0.2-0.1,0.4-0.2,0.5-0.3s0.3-0.3,0.5-0.5c0.1-0.2,0.3-0.5,0.3-0.8c0.1-0.3,0.1-0.7,0.1-1.1c0-0.4,0-0.8-0.1-1.1S17,84.3,16.8,84
			c-0.2-0.2-0.4-0.4-0.7-0.5c-0.3-0.1-0.7-0.2-1.1-0.2h-1.6v5.5H15z"/>
		<path class="st2" d="M27.6,82.5v0.8h-4v2.3h3.7v0.8h-3.7v2.5h4v0.8h-5v-7.1H27.6z"/>
		<path class="st2" d="M35.6,83.5c-0.3-0.2-0.7-0.3-1.2-0.3c-0.2,0-0.4,0-0.6,0.1s-0.4,0.1-0.5,0.2s-0.3,0.2-0.4,0.4
			c-0.1,0.2-0.1,0.4-0.1,0.6c0,0.2,0.1,0.4,0.2,0.5c0.1,0.1,0.3,0.2,0.5,0.3s0.5,0.2,0.7,0.2s0.6,0.1,0.8,0.2
			c0.3,0.1,0.6,0.1,0.8,0.2s0.5,0.2,0.7,0.4s0.4,0.3,0.5,0.6s0.2,0.5,0.2,0.9c0,0.4-0.1,0.7-0.3,1c-0.2,0.3-0.4,0.5-0.7,0.7
			s-0.6,0.3-0.9,0.4s-0.7,0.1-1,0.1c-0.4,0-0.8,0-1.1-0.2c-0.4-0.1-0.7-0.3-0.9-0.5c-0.3-0.2-0.5-0.5-0.6-0.8
			c-0.2-0.3-0.2-0.7-0.2-1.1h0.9c0,0.3,0.1,0.6,0.2,0.8c0.1,0.2,0.3,0.4,0.5,0.5c0.2,0.1,0.4,0.2,0.7,0.3C34,89,34.3,89,34.6,89
			c0.2,0,0.4,0,0.6-0.1c0.2,0,0.4-0.1,0.6-0.2s0.3-0.2,0.4-0.4c0.1-0.2,0.2-0.4,0.2-0.6c0-0.2-0.1-0.4-0.2-0.6
			c-0.1-0.2-0.3-0.3-0.5-0.4s-0.5-0.2-0.7-0.2c-0.3-0.1-0.6-0.1-0.8-0.2s-0.6-0.1-0.8-0.2s-0.5-0.2-0.7-0.3s-0.4-0.3-0.5-0.5
			c-0.1-0.2-0.2-0.5-0.2-0.8c0-0.4,0.1-0.7,0.2-0.9c0.1-0.3,0.3-0.5,0.6-0.6c0.2-0.2,0.5-0.3,0.8-0.4c0.3-0.1,0.6-0.1,1-0.1
			c0.4,0,0.7,0,1,0.1c0.3,0.1,0.6,0.2,0.8,0.4c0.2,0.2,0.4,0.4,0.6,0.7c0.1,0.3,0.2,0.6,0.2,1h-0.9C36.1,84.1,35.9,83.7,35.6,83.5z"
			/>
		<path class="st2" d="M42.7,82.5v7.1h-1v-7.1H42.7z"/>
		<path class="st2" d="M51.8,89.6c-0.4,0.2-0.8,0.2-1.2,0.2c-0.5,0-1-0.1-1.4-0.3c-0.4-0.2-0.8-0.5-1.1-0.8
			c-0.3-0.3-0.5-0.7-0.7-1.2c-0.2-0.4-0.2-0.9-0.2-1.3c0-0.5,0.1-1,0.2-1.5s0.4-0.9,0.6-1.2c0.3-0.4,0.6-0.6,1.1-0.8
			c0.4-0.2,0.9-0.3,1.5-0.3c0.4,0,0.8,0,1.1,0.1c0.3,0.1,0.7,0.2,0.9,0.4c0.3,0.2,0.5,0.4,0.7,0.7c0.2,0.3,0.3,0.7,0.4,1.1h-1
			c0-0.3-0.1-0.5-0.3-0.7c-0.1-0.2-0.3-0.4-0.5-0.5c-0.2-0.1-0.4-0.2-0.6-0.3s-0.5-0.1-0.8-0.1c-0.4,0-0.8,0.1-1.1,0.3
			c-0.3,0.2-0.6,0.4-0.8,0.7c-0.2,0.3-0.3,0.6-0.4,1s-0.1,0.7-0.1,1.1c0,0.4,0.1,0.7,0.2,1.1c0.1,0.3,0.3,0.6,0.5,0.9
			c0.2,0.3,0.5,0.5,0.8,0.6c0.3,0.2,0.7,0.2,1.1,0.2c0.4,0,0.7-0.1,1-0.2c0.3-0.1,0.5-0.3,0.7-0.5c0.2-0.2,0.3-0.5,0.4-0.7
			c0.1-0.3,0.1-0.6,0.1-0.9h-2.3v-0.8h3.1v3.8h-0.6l-0.2-0.9C52.5,89.1,52.2,89.4,51.8,89.6z"/>
		<path class="st2" d="M59.3,82.5l3.8,5.8h0v-5.8h0.9v7.1h-1l-3.7-5.7h0v5.7h-0.9v-7.1H59.3z"/>
		<path class="st2" d="M78.2,83.5c-0.3-0.2-0.7-0.3-1.2-0.3c-0.2,0-0.4,0-0.6,0.1s-0.4,0.1-0.5,0.2c-0.2,0.1-0.3,0.2-0.4,0.4
			s-0.1,0.4-0.1,0.6c0,0.2,0.1,0.4,0.2,0.5c0.1,0.1,0.3,0.2,0.5,0.3s0.5,0.2,0.7,0.2s0.6,0.1,0.8,0.2c0.3,0.1,0.6,0.1,0.8,0.2
			s0.5,0.2,0.7,0.4s0.4,0.3,0.5,0.6c0.1,0.2,0.2,0.5,0.2,0.9c0,0.4-0.1,0.7-0.3,1c-0.2,0.3-0.4,0.5-0.7,0.7
			c-0.3,0.2-0.6,0.3-0.9,0.4s-0.7,0.1-1,0.1c-0.4,0-0.8,0-1.1-0.2c-0.4-0.1-0.7-0.3-0.9-0.5c-0.3-0.2-0.5-0.5-0.6-0.8
			c-0.2-0.3-0.2-0.7-0.2-1.1h0.9c0,0.3,0.1,0.6,0.2,0.8c0.1,0.2,0.3,0.4,0.5,0.5s0.4,0.2,0.7,0.3C76.7,89,77,89,77.2,89
			c0.2,0,0.4,0,0.6-0.1s0.4-0.1,0.6-0.2c0.2-0.1,0.3-0.2,0.4-0.4C79,88.2,79,88,79,87.7c0-0.2-0.1-0.4-0.2-0.6
			c-0.1-0.2-0.3-0.3-0.5-0.4c-0.2-0.1-0.5-0.2-0.7-0.2c-0.3-0.1-0.6-0.1-0.8-0.2s-0.6-0.1-0.8-0.2s-0.5-0.2-0.7-0.3
			s-0.4-0.3-0.5-0.5c-0.1-0.2-0.2-0.5-0.2-0.8c0-0.4,0.1-0.7,0.2-0.9c0.1-0.3,0.3-0.5,0.6-0.6s0.5-0.3,0.8-0.4
			c0.3-0.1,0.6-0.1,1-0.1c0.4,0,0.7,0,1,0.1c0.3,0.1,0.6,0.2,0.8,0.4c0.2,0.2,0.4,0.4,0.6,0.7c0.1,0.3,0.2,0.6,0.2,1h-0.9
			C78.7,84.1,78.5,83.7,78.2,83.5z"/>
		<path class="st2" d="M83.6,83.3v-0.8h5.7v0.8h-2.4v6.3H86v-6.3H83.6z"/>
		<path class="st2" d="M98.2,89.1c-0.5,0.5-1.2,0.7-2.1,0.7c-0.9,0-1.6-0.2-2.2-0.7c-0.5-0.4-0.8-1.1-0.8-2.1v-4.6h1v4.6
			c0,0.6,0.2,1.1,0.5,1.5s0.8,0.5,1.5,0.5c0.6,0,1.1-0.2,1.4-0.5s0.5-0.8,0.5-1.5v-4.6H99v4.6C99,88,98.7,88.7,98.2,89.1z"/>
		<path class="st2" d="M106.1,82.5c1.1,0,1.9,0.3,2.5,0.8c0.6,0.6,0.9,1.4,0.9,2.6c0,0.6-0.1,1.1-0.2,1.6c-0.1,0.5-0.3,0.9-0.6,1.2
			c-0.3,0.3-0.6,0.6-1.1,0.7c-0.4,0.2-0.9,0.2-1.5,0.2h-2.4v-7.1H106.1z M106.2,88.9c0.1,0,0.2,0,0.4,0s0.3-0.1,0.5-0.1
			c0.2-0.1,0.4-0.2,0.5-0.3c0.2-0.1,0.3-0.3,0.5-0.5s0.3-0.5,0.3-0.8c0.1-0.3,0.1-0.7,0.1-1.1c0-0.4,0-0.8-0.1-1.1
			c-0.1-0.3-0.2-0.6-0.4-0.9c-0.2-0.2-0.4-0.4-0.7-0.5c-0.3-0.1-0.7-0.2-1.1-0.2h-1.6v5.5H106.2z"/>
		<path class="st2" d="M114.9,82.5v7.1H114v-7.1H114.9z"/>
		<path class="st2" d="M119.5,84.7c0.1-0.5,0.4-0.8,0.6-1.2s0.6-0.6,1.1-0.8c0.4-0.2,0.9-0.3,1.5-0.3s1.1,0.1,1.5,0.3
			c0.4,0.2,0.8,0.5,1.1,0.8c0.3,0.3,0.5,0.7,0.6,1.2c0.1,0.4,0.2,0.9,0.2,1.4c0,0.5-0.1,1-0.2,1.4c-0.1,0.5-0.4,0.8-0.6,1.2
			c-0.3,0.3-0.6,0.6-1.1,0.8c-0.4,0.2-0.9,0.3-1.5,0.3s-1.1-0.1-1.5-0.3c-0.4-0.2-0.8-0.5-1.1-0.8s-0.5-0.7-0.6-1.2
			c-0.1-0.5-0.2-0.9-0.2-1.4C119.3,85.6,119.4,85.1,119.5,84.7z M120.4,87.1c0.1,0.3,0.2,0.7,0.4,0.9c0.2,0.3,0.5,0.5,0.8,0.7
			c0.3,0.2,0.7,0.3,1.1,0.3s0.8-0.1,1.1-0.3c0.3-0.2,0.6-0.4,0.8-0.7c0.2-0.3,0.3-0.6,0.4-0.9c0.1-0.4,0.1-0.7,0.1-1.1
			c0-0.4,0-0.7-0.1-1.1c-0.1-0.4-0.2-0.7-0.4-0.9c-0.2-0.3-0.5-0.5-0.8-0.7c-0.3-0.2-0.7-0.3-1.1-0.3s-0.8,0.1-1.1,0.3
			c-0.3,0.2-0.6,0.4-0.8,0.7c-0.2,0.3-0.3,0.6-0.4,0.9c-0.1,0.3-0.1,0.7-0.1,1.1C120.3,86.4,120.3,86.8,120.4,87.1z"/>
	</g>
	<path class="st2" d="M92.8,0c-1,23.8-2,50.7-4.8,73.9C85.5,71.7,86.2,23.6,92.8,0z"/>
	<path class="st2" d="M75.9,68.2c-0.6-1.8-1-3.7-1.4-5.6c-0.9-3.7-2.4-10-2.8-11.1C71.4,50.7,70,49,69,48.4c-0.6-0.3-3-1.2-4.5-0.6
		c-2,0.8-3.7,2.1-5.1,3.7c-3,3.7-4.2,8.1-4.5,12.8c-0.1,2.5,0.5,4.8,1.9,6.9c1.5,2.3,4.7,3.5,7.2,0.2c1.8-2.3,3.1-4.7,4.2-7.3
		c0.6-1.4,1.3-2.8,1.7-3.7c0.7,0.8,5.9,12.8,7.5,12.5C77,72,76.2,69.2,75.9,68.2z M68.5,55.7c-0.8,3.5-6.4,13.5-9,12.6
		c-2.9-1-1.7-10.5,1.2-14.2c1.3-1.8,4.2-4.2,6.7-3.2C69.1,51.6,68.9,54,68.5,55.7z"/>
	<path class="st2" d="M82,72.9c0.4-25.3-0.9-56.9-2.2-68.7C76.8,10.8,76.3,51,82,72.9z"/>
	<path class="st2" d="M45.6,36.4c-5.8-1.9-16.4,1.8-21.1,6.2c7.6-2,17.2-6,22.4,0.4c4,4.9,3.2,13,0.8,16.9
		c-4.3,7.1-14.8,10.3-22.9,9.2C13.9,67.5,4.4,58,5.1,46.7c0.8-13.8,7.3-20.3,9.5-23c2.9-3.5,9.4-8,17.7-8c12,0,17.4,8.3,17.4,8.3
		S47.5,9.6,30.3,9.6c-8.3,0-15.7,4.5-20.2,11.4C2.5,32.4,1.3,50.6,8.1,63c3.5,6.4,10.9,10.9,20.6,10.8c20.3-0.1,24.2-19.1,24.4-23.7
		C53.3,46.3,52.2,38.5,45.6,36.4z"/>
	<g>
		<path class="st2" d="M98.2,54.3C98.2,54.3,98.2,54.3,98.2,54.3C98.2,54.3,98.2,54.3,98.2,54.3C98.2,54.3,98.2,54.3,98.2,54.3z"/>
		<path class="st2" d="M198.7,80c-3.2-0.5-14,0.3-26.7,2.1c-1-11.7-2.3-23.2-3.3-35c-0.2-2.4-2-3.8-2.7-2.5
			c-0.6,1-3.8,18.8-9.4,23.8c-0.8,0.7-1.8,1.2-2.8,1.3c-2.7,0.2-3.9-2.4-4.4-4.7c-1.4-6.2,0-19.6-1.4-19.6c-1.9,0-5.5,12.3-7.8,15.9
			c-2.5,4-5.1,9.3-9.7,9.3c-4.6,0-5-5.6-3.9-9.2c1.2-3.9,3.6-7.4,6.9-9.9c0.7-0.5,1.2-1.4,1-2.3c-0.3-1.6-1.8-1.7-3-1.6
			c-4.4,0.3-8.8,0.9-13.1,2c-0.6,0.2-1.3,0.4-1.7,0.9c-0.7,1,0,2.4,0.5,3.5c1.3,3,1,6.7-0.6,9.6c-2,3.7-3.9,6.3-7.9,7.5
			c-2,0.6-4.1,0.7-6.1,0.1c-6.2-2-6.6-8.7-4.9-13.8c4.5,0.8,9.5-1.3,11.7-5.3c0.7-1.3,0.8-3,0-4.3c-1.5-2.3-4.6-1.7-6.8-0.5
			c-4.5,2.5-8.4,7.4-8.7,12.6c-0.3,5,2.5,10.2,6.9,12.6c5.8,3.1,11.4,1.5,15.9-3.3s5.7-12.1,3.6-18.3c2.9-0.8,5.3-1.4,8.2-1.4
			c-2.8,4.3-5.7,8.9-5.4,14.4c0.2,2.6,1.3,5.1,3.3,6.8c4.2,3.4,6.7,2.7,10.5-0.3c5.1-4.1,7.4-11.6,9.6-17.8
			c0.6,5.8-1.2,11.9,2.5,17.4c1.1,1.7,2.8,2.9,4.8,3.2c4.3,0.6,7.9-3.1,9.6-6.5c2.3-4.9,2.9-11.5,3.7-16.9
			c1.3,10.4,1.6,22.1,2.7,32.6c-21,3.3-41.5,11.7-41.5,24c0,12.5,12.6,20,23.8,20c17.3,0,19.3-14.6,20.3-22.4
			c1-7.7,0.6-11.4-0.1-19.2C183.6,82.9,193.3,81.2,198.7,80z M98.2,54.3C98.6,53.1,98.4,53.8,98.2,54.3c0.6-2,2.1-3.6,3.9-4.5
			c0.8-0.4,2.9-0.5,3.4,1.3c0.2,0.9,0,2.2-2.1,3.9C102.4,55.7,97.5,56.9,98.2,54.3C98.2,54.6,98.1,54.7,98.2,54.3z M154.9,121.9
			c-17.6,0.1-22-12.6-21-17c3.6-15.9,32.6-18.8,35.9-19.7c0.1,0,0.2,0,0.3,0C170.3,86.4,174.9,121.7,154.9,121.9z"/>
	</g>
</g>
</svg>
